name Walk7.mot
datacolumns 19
datarows 15
range 2.54100000 2.55500000
endheader

                time	   L_ground_force_vx	   L_ground_force_vy	   L_ground_force_vz	   L_ground_force_px	   L_ground_force_py	   L_ground_force_pz	   R_ground_force_vx	   R_ground_force_vy	   R_ground_force_vz	   R_ground_force_px	   R_ground_force_py	   R_ground_force_pz	   L_ground_torque_x	   L_ground_torque_y	   L_ground_torque_z	   R_ground_torque_x	   R_ground_torque_y	   R_ground_torque_z	
          2.54100000	          0.00000000	          0.00000000	          0.00000000	          0.00000000	          0.00000000	          0.00000000	          0.00000000	          0.00000000	          0.00000000	          0.00000000	          0.00000000	          0.00000000	          0.00000000	          0.00000000	          0.00000000	          0.00000000	          0.00000000	          0.00000000	
          2.54200000	          0.00000000	          0.00000000	          0.00000000	          0.00000000	          0.00000000	          0.00000000	          0.00000000	          0.00000000	          0.00000000	          0.00000000	          0.00000000	          0.00000000	          0.00000000	          0.00000000	          0.00000000	          0.00000000	          0.00000000	          0.00000000	
          2.54300000	          0.00000000	          0.00000000	          0.00000000	          0.00000000	          0.00000000	          0.00000000	          0.00000000	          0.00000000	          0.00000000	          0.00000000	          0.00000000	          0.00000000	          0.00000000	          0.00000000	          0.00000000	          0.00000000	          0.00000000	          0.00000000	
          2.54400000	          0.00000000	          0.00000000	          0.00000000	          0.00000000	          0.00000000	          0.00000000	          0.00000000	          0.00000000	          0.00000000	          0.00000000	          0.00000000	          0.00000000	          0.00000000	          0.00000000	          0.00000000	          0.00000000	          0.00000000	          0.00000000	
          2.54500000	          0.00000000	          0.00000000	          0.00000000	          0.00000000	          0.00000000	          0.00000000	          0.00000000	          0.00000000	          0.00000000	          0.00000000	          0.00000000	          0.00000000	          0.00000000	          0.00000000	          0.00000000	          0.00000000	          0.00000000	          0.00000000	
          2.54600000	          0.00000000	          0.00000000	          0.00000000	          0.00000000	          0.00000000	          0.00000000	          0.00000000	          0.00000000	          0.00000000	          0.00000000	          0.00000000	          0.00000000	          0.00000000	          0.00000000	          0.00000000	          0.00000000	          0.00000000	          0.00000000	
          2.54700000	          0.00000000	          0.00000000	          0.00000000	          0.00000000	          0.00000000	          0.00000000	         -3.88133254	         16.29593367	         -5.01653039	         -0.45783196	          0.00000000	         -0.05419275	          0.00000000	          0.00000000	          0.00000000	          0.00000000	         -0.00209210	          0.00000000	
          2.54800000	          0.00000000	          0.00000000	          0.00000000	          0.00000000	          0.00000000	          0.00000000	         -5.17118172	         26.80778456	         -7.13970844	         -0.45384355	          0.00000000	         -0.05367803	          0.00000000	          0.00000000	          0.00000000	          0.00000000	         -0.01125473	          0.00000000	
          2.54900000	          0.00000000	          0.00000000	          0.00000000	          0.00000000	          0.00000000	          0.00000000	         -6.17356876	         39.30465494	         -9.16759909	         -0.45094224	          0.00000000	         -0.05325598	          0.00000000	          0.00000000	          0.00000000	          0.00000000	         -0.02224658	          0.00000000	
          2.55000000	          0.00000000	          0.00000000	          0.00000000	          0.00000000	          0.00000000	          0.00000000	         -6.84988792	         53.49086108	        -11.07745243	         -0.44907112	          0.00000000	         -0.05308526	          0.00000000	          0.00000000	          0.00000000	          0.00000000	         -0.03512075	          0.00000000	
          2.55100000	          0.00000000	          0.00000000	          0.00000000	          0.00000000	          0.00000000	          0.00000000	         -7.20300285	         69.05123850	        -12.93121988	         -0.44813123	          0.00000000	         -0.05331181	          0.00000000	          0.00000000	          0.00000000	          0.00000000	         -0.04993948	          0.00000000	
          2.55200000	          0.00000000	          0.00000000	          0.00000000	          0.00000000	          0.00000000	          0.00000000	         -7.19851745	         85.52299656	        -14.74541005	         -0.44770308	          0.00000000	         -0.05384661	          0.00000000	          0.00000000	          0.00000000	          0.00000000	         -0.06912352	          0.00000000	
          2.55300000	          0.00000000	          0.00000000	          0.00000000	          0.00000000	          0.00000000	          0.00000000	         -6.76718812	        102.23453640	        -16.44615780	         -0.44733646	          0.00000000	         -0.05445031	          0.00000000	          0.00000000	          0.00000000	          0.00000000	         -0.09514956	          0.00000000	
          2.55400000	          0.00000000	          0.00000000	          0.00000000	          0.00000000	          0.00000000	          0.00000000	         -5.85398280	        118.33463006	        -17.91549058	         -0.44686778	          0.00000000	         -0.05492503	          0.00000000	          0.00000000	          0.00000000	          0.00000000	         -0.12401566	          0.00000000	
          2.55500000	          0.00000000	          0.00000000	          0.00000000	          0.00000000	          0.00000000	          0.00000000	         -4.46953690	        132.99036070	        -19.06956470	         -0.44633705	          0.00000000	         -0.05515293	          0.00000000	          0.00000000	          0.00000000	          0.00000000	         -0.14455175	          0.00000000	
